<svg width="21" height="16" viewBox="0 0 21 16" fill="none" xmlns="http://www.w3.org/2000/svg">
<path fill-rule="evenodd" clip-rule="evenodd" d="M0.5 2C0.5 1.17157 1.17157 0.5 2 0.5H19C19.8284 0.5 20.5 1.17157 20.5 2C20.5 2.82843 19.8284 3.5 19 3.5H2C1.17157 3.5 0.5 2.82843 0.5 2ZM7.5 8C7.5 7.17157 8.17157 6.5 9 6.5H19C19.8284 6.5 20.5 7.17157 20.5 8C20.5 8.82843 19.8284 9.5 19 9.5H9C8.17157 9.5 7.5 8.82843 7.5 8ZM4.5 14C4.5 13.1716 5.17157 12.5 6 12.5H19C19.8284 12.5 20.5 13.1716 20.5 14C20.5 14.8284 19.8284 15.5 19 15.5H6C5.17157 15.5 4.5 14.8284 4.5 14Z" fill="white"/>
</svg>
