<svg width="274" height="61" viewBox="0 0 274 61" fill="none" xmlns="http://www.w3.org/2000/svg">
<path d="M86.8406 27C91.686 27 95.2726 23.2666 95.2726 18.5C95.2726 13.8508 91.7335 10 86.7218 10C83.7291 10 81.9239 11.1271 80.3563 12.5829L82.0189 14.5552C83.349 13.3812 84.8217 12.6064 86.7456 12.6064C89.5008 12.6064 91.6385 14.5552 92.1373 17.2086H84.7029V19.674H92.161C91.7098 22.3978 89.5721 24.4171 86.7456 24.4171C84.6554 24.4171 83.3253 23.5953 81.8764 22.2804L80 24.1823C81.7101 25.9669 83.7053 27 86.8406 27Z" fill="white"/>
<path d="M98.393 26.8591C101.172 26.8591 102.882 25.7555 102.882 16.7624H106.801V26.7182H109.675V14.3204H100.198C100.198 23.7597 99.2006 24.4641 97.7517 24.4641C97.5617 24.4641 97.1104 24.4171 96.9204 24.3702L96.7066 26.6948C97.1341 26.7652 97.9417 26.8591 98.393 26.8591Z" fill="white"/>
<path d="M119.035 27C121.339 27 122.977 26.0843 124.165 24.6754L122.479 23.1961C121.481 24.1588 120.484 24.6754 119.082 24.6754C117.229 24.6754 115.781 23.5483 115.472 21.529H124.688C124.711 21.3881 124.735 20.9185 124.735 20.7307C124.735 17.1616 122.716 14.0622 118.726 14.0622C115.139 14.0622 112.598 16.9738 112.598 20.5193C112.598 24.3936 115.401 27 119.035 27ZM115.448 19.6506C115.709 17.7251 116.944 16.3867 118.702 16.3867C120.602 16.3867 121.695 17.8191 121.885 19.6506H115.448Z" fill="white"/>
<path d="M127.621 26.7182H130.472V23.7362L132.514 21.5994L136.315 26.7182H139.711L134.438 19.5331L139.307 14.3204H135.935L130.472 20.261V14.3204H127.621V26.7182Z" fill="white"/>
<path d="M147.496 27C149.943 27 151.392 26.0373 152.627 24.6754L150.893 22.9848C149.99 23.9006 148.993 24.5345 147.639 24.5345C145.43 24.5345 143.886 22.75 143.886 20.5428V20.4959C143.886 18.3356 145.406 16.5511 147.496 16.5511C148.945 16.5511 149.872 17.1851 150.75 18.1008L152.532 16.1989C151.368 14.9309 149.895 14.0622 147.52 14.0622C143.767 14.0622 141.012 17.0207 141.012 20.5428V20.5898C141.012 24.1119 143.767 27 147.496 27Z" fill="white"/>
<path d="M155.154 26.7182H158.028V21.7169H163.562V26.7182H166.436V14.3204H163.562V19.3453H158.028V14.3204H155.154V26.7182Z" fill="white"/>
<path d="M175.794 27C178.098 27 179.737 26.0843 180.924 24.6754L179.238 23.1961C178.24 24.1588 177.243 24.6754 175.841 24.6754C173.989 24.6754 172.54 23.5483 172.231 21.529H181.447C181.47 21.3881 181.494 20.9185 181.494 20.7307C181.494 17.1616 179.475 14.0622 175.485 14.0622C171.898 14.0622 169.357 16.9738 169.357 20.5193C169.357 24.3936 172.16 27 175.794 27ZM172.207 19.6506C172.468 17.7251 173.703 16.3867 175.461 16.3867C177.361 16.3867 178.454 17.8191 178.644 19.6506H172.207Z" fill="white"/>
<path d="M187.064 26.7182H189.962V16.7624H194V14.3204H183.027V16.7624H187.064V26.7182Z" fill="white"/>
<path fill-rule="evenodd" clip-rule="evenodd" d="M30 56.7273C44.7611 56.7273 56.7273 44.7611 56.7273 30C56.7273 15.2389 44.7611 3.27273 30 3.27273C15.2389 3.27273 3.27273 15.2389 3.27273 30C3.27273 44.7611 15.2389 56.7273 30 56.7273ZM30 60C46.5685 60 60 46.5685 60 30C60 13.4315 46.5685 0 30 0C13.4315 0 0 13.4315 0 30C0 46.5685 13.4315 60 30 60Z" fill="white"/>
<path fill-rule="evenodd" clip-rule="evenodd" d="M30 56.7273C44.7611 56.7273 56.7273 44.7611 56.7273 30C56.7273 15.2389 44.7611 3.27273 30 3.27273C15.2389 3.27273 3.27273 15.2389 3.27273 30C3.27273 44.7611 15.2389 56.7273 30 56.7273ZM30 60C46.5685 60 60 46.5685 60 30C60 13.4315 46.5685 0 30 0C13.4315 0 0 13.4315 0 30C0 46.5685 13.4315 60 30 60Z" fill="url(#paint0_linear)"/>
<path fill-rule="evenodd" clip-rule="evenodd" d="M51.5744 33.2727C49.9953 43.77 40.9375 51.8182 30 51.8182C17.9502 51.8182 8.18182 42.0499 8.18182 30C8.18182 17.9502 17.9502 8.18182 30 8.18182C41.684 8.18182 51.223 17.3661 51.7914 28.9091H25.0909V33.2727H51.5744ZM37.0909 17.7273C37.0909 19.6854 35.5036 21.2727 33.5455 21.2727C31.5874 21.2727 30 19.6854 30 17.7273C30 15.7692 31.5874 14.1818 33.5455 14.1818C35.5036 14.1818 37.0909 15.7692 37.0909 17.7273Z" fill="white"/>
<path fill-rule="evenodd" clip-rule="evenodd" d="M51.5744 33.2727C49.9953 43.77 40.9375 51.8182 30 51.8182C17.9502 51.8182 8.18182 42.0499 8.18182 30C8.18182 17.9502 17.9502 8.18182 30 8.18182C41.684 8.18182 51.223 17.3661 51.7914 28.9091H25.0909V33.2727H51.5744ZM37.0909 17.7273C37.0909 19.6854 35.5036 21.2727 33.5455 21.2727C31.5874 21.2727 30 19.6854 30 17.7273C30 15.7692 31.5874 14.1818 33.5455 14.1818C35.5036 14.1818 37.0909 15.7692 37.0909 17.7273Z" fill="url(#paint1_linear)"/>
<path d="M88.638 42.678L89.38 41.67C88.932 41.278 88.4 40.97 87.812 40.76C87.196 40.536 86.566 40.424 85.894 40.424C85.096 40.424 84.368 40.55 83.738 40.802C83.108 41.054 82.562 41.404 82.128 41.852C81.68 42.286 81.344 42.804 81.092 43.406C80.868 44.008 80.742 44.652 80.742 45.338C80.742 46.094 80.868 46.766 81.092 47.368C81.344 47.97 81.68 48.474 82.1 48.894C82.548 49.314 83.052 49.636 83.668 49.86C84.256 50.084 84.928 50.196 85.656 50.196C87.266 50.196 88.568 49.706 89.576 48.74L88.778 47.76C88.358 48.138 87.896 48.418 87.392 48.628C86.874 48.824 86.328 48.922 85.726 48.922C85.208 48.922 84.732 48.838 84.312 48.67C83.864 48.502 83.5 48.264 83.178 47.956C82.856 47.648 82.618 47.27 82.436 46.822C82.254 46.374 82.17 45.87 82.17 45.31C82.17 44.764 82.254 44.26 82.436 43.812C82.604 43.378 82.842 43 83.164 42.678C83.472 42.356 83.85 42.118 84.284 41.95C84.732 41.782 85.222 41.698 85.768 41.698C86.902 41.698 87.854 42.02 88.638 42.678ZM92.0792 46.892H97.8332C97.8612 46.752 97.8892 46.612 97.9032 46.472C97.9172 46.318 97.9312 46.178 97.9312 46.024C97.9312 45.534 97.8472 45.072 97.6792 44.666C97.5252 44.26 97.2872 43.896 97.0072 43.616C96.6992 43.308 96.3492 43.084 95.9432 42.93C95.5372 42.776 95.0752 42.692 94.5712 42.692C93.9972 42.692 93.4652 42.79 92.9892 42.972C92.5132 43.154 92.1072 43.42 91.7712 43.756C91.4352 44.092 91.1692 44.484 90.9872 44.946C90.8052 45.408 90.7072 45.898 90.7072 46.444C90.7072 47.018 90.7912 47.536 90.9732 47.998C91.1552 48.46 91.4072 48.852 91.7432 49.16C92.0652 49.496 92.4712 49.734 92.9472 49.916C93.4232 50.084 93.9692 50.168 94.5712 50.168C95.1732 50.168 95.7332 50.084 96.2512 49.944C96.7692 49.776 97.2592 49.524 97.7352 49.16L97.1192 48.194C96.7412 48.46 96.3632 48.656 95.9432 48.796C95.5512 48.908 95.0892 48.978 94.5992 48.978C93.8712 48.978 93.2832 48.796 92.8492 48.432C92.4152 48.068 92.1492 47.55 92.0792 46.892ZM96.5592 45.772H92.1352C92.2332 45.184 92.4852 44.722 92.8912 44.372C93.2972 44.036 93.8292 43.868 94.5152 43.868C95.2012 43.868 95.7052 44.036 96.0412 44.386C96.3772 44.736 96.5452 45.198 96.5592 45.772ZM105.709 42.86H99.0727V44.036H101.705V50H103.077V44.036H105.709V42.86ZM108.699 42.86H107.327V50H110.267C110.771 50 111.219 49.93 111.625 49.804C112.017 49.664 112.353 49.468 112.633 49.244C112.899 48.992 113.109 48.712 113.249 48.39C113.403 48.068 113.473 47.704 113.473 47.312C113.473 46.878 113.403 46.514 113.249 46.192C113.095 45.87 112.899 45.604 112.633 45.408C112.381 45.184 112.087 45.03 111.737 44.932C111.401 44.82 111.037 44.764 110.659 44.764C110.309 44.764 109.973 44.806 109.637 44.876C109.315 44.96 108.993 45.072 108.699 45.226V42.86ZM108.699 48.852V46.346C109.217 46.052 109.791 45.898 110.449 45.898C110.995 45.898 111.415 46.024 111.681 46.262C111.961 46.5 112.101 46.85 112.101 47.298C112.101 47.774 111.947 48.152 111.625 48.432C111.317 48.712 110.841 48.852 110.183 48.852H108.699ZM120.817 42.86H119.235V50H120.537V44.722H120.677L122.805 47.928H123.449L125.591 44.722H125.717V50H127.033V42.86H125.479L123.141 46.402L120.817 42.86ZM132.607 42.692C132.033 42.692 131.515 42.79 131.039 42.972C130.563 43.154 130.157 43.42 129.821 43.756C129.471 44.092 129.205 44.484 129.009 44.946C128.827 45.408 128.729 45.898 128.729 46.43C128.729 46.976 128.827 47.48 129.009 47.942C129.191 48.404 129.457 48.796 129.793 49.132C130.143 49.454 130.549 49.72 131.025 49.888C131.501 50.084 132.033 50.168 132.607 50.168C133.167 50.168 133.685 50.07 134.161 49.888C134.637 49.706 135.043 49.44 135.393 49.104C135.729 48.768 135.995 48.376 136.191 47.914C136.387 47.452 136.485 46.962 136.485 46.43C136.485 45.884 136.387 45.38 136.205 44.918C136.023 44.456 135.757 44.064 135.407 43.728C135.057 43.406 134.651 43.14 134.175 42.972C133.699 42.776 133.181 42.692 132.607 42.692ZM132.607 43.854C132.985 43.854 133.335 43.924 133.643 44.05C133.951 44.176 134.217 44.358 134.441 44.596C134.651 44.82 134.819 45.086 134.945 45.408C135.071 45.716 135.127 46.052 135.127 46.43C135.127 46.808 135.071 47.158 134.945 47.48C134.833 47.802 134.665 48.068 134.441 48.292C134.231 48.516 133.965 48.684 133.657 48.824C133.349 48.936 132.999 49.006 132.607 49.006C132.229 49.006 131.879 48.936 131.571 48.824C131.263 48.684 130.997 48.516 130.773 48.292C130.563 48.068 130.395 47.802 130.269 47.48C130.143 47.158 130.087 46.808 130.087 46.43C130.087 46.052 130.143 45.716 130.269 45.394C130.381 45.072 130.549 44.806 130.773 44.568C130.983 44.344 131.249 44.176 131.557 44.036C131.879 43.924 132.229 43.854 132.607 43.854ZM139.766 42.86H138.184V50H139.486V44.722H139.626L141.754 47.928H142.398L144.54 44.722H144.666V50H145.982V42.86H144.428L142.09 46.402L139.766 42.86ZM149.05 46.892H154.804C154.832 46.752 154.86 46.612 154.874 46.472C154.888 46.318 154.902 46.178 154.902 46.024C154.902 45.534 154.818 45.072 154.65 44.666C154.496 44.26 154.258 43.896 153.978 43.616C153.67 43.308 153.32 43.084 152.914 42.93C152.508 42.776 152.046 42.692 151.542 42.692C150.968 42.692 150.436 42.79 149.96 42.972C149.484 43.154 149.078 43.42 148.742 43.756C148.406 44.092 148.14 44.484 147.958 44.946C147.776 45.408 147.678 45.898 147.678 46.444C147.678 47.018 147.762 47.536 147.944 47.998C148.126 48.46 148.378 48.852 148.714 49.16C149.036 49.496 149.442 49.734 149.918 49.916C150.394 50.084 150.94 50.168 151.542 50.168C152.144 50.168 152.704 50.084 153.222 49.944C153.74 49.776 154.23 49.524 154.706 49.16L154.09 48.194C153.712 48.46 153.334 48.656 152.914 48.796C152.522 48.908 152.06 48.978 151.57 48.978C150.842 48.978 150.254 48.796 149.82 48.432C149.386 48.068 149.12 47.55 149.05 46.892ZM153.53 45.772H149.106C149.204 45.184 149.456 44.722 149.862 44.372C150.268 44.036 150.8 43.868 151.486 43.868C152.172 43.868 152.676 44.036 153.012 44.386C153.348 44.736 153.516 45.198 153.53 45.772ZM157.986 42.86H156.6V50H157.986V46.962H161.836V50H163.222V42.86H161.836V45.786H157.986V42.86ZM171.484 42.86H164.848V44.036H167.48V50H168.852V44.036H171.484V42.86ZM173.049 43.518L173.595 44.498C174.365 44.092 175.163 43.882 176.017 43.882C176.647 43.882 177.123 44.008 177.417 44.274C177.711 44.54 177.865 44.918 177.865 45.436V45.828C177.571 45.73 177.235 45.646 176.899 45.576C176.535 45.506 176.171 45.478 175.779 45.478C174.785 45.478 174.015 45.688 173.441 46.094C172.867 46.5 172.587 47.074 172.587 47.788C172.587 48.558 172.839 49.16 173.315 49.552C173.819 49.972 174.477 50.168 175.331 50.168C176.577 50.168 177.501 49.748 178.103 48.922C178.173 49.384 178.327 49.692 178.579 49.86C178.803 50.042 179.111 50.126 179.461 50.126C179.741 50.126 179.979 50.084 180.175 49.986L180.049 48.95C179.951 48.992 179.853 49.006 179.755 49.006C179.587 49.006 179.447 48.936 179.349 48.824C179.251 48.684 179.195 48.474 179.195 48.18V45.562C179.195 44.666 178.943 43.966 178.425 43.448C177.907 42.944 177.095 42.692 175.989 42.692C175.457 42.692 174.953 42.748 174.477 42.888C174.001 43 173.525 43.224 173.049 43.518ZM177.879 46.892V47.2C177.879 47.466 177.823 47.718 177.697 47.928C177.571 48.152 177.403 48.348 177.207 48.502C176.983 48.656 176.745 48.782 176.479 48.88C176.199 48.964 175.905 49.006 175.583 49.006C175.065 49.006 174.659 48.908 174.379 48.712C174.113 48.502 173.973 48.208 173.973 47.816C173.973 47.452 174.113 47.158 174.407 46.92C174.687 46.696 175.163 46.584 175.835 46.584C176.605 46.584 177.277 46.682 177.879 46.892ZM188.856 42.86H183.2V44.092C183.2 44.946 183.172 45.702 183.13 46.388C183.074 47.074 182.962 47.634 182.808 48.082C182.738 48.334 182.626 48.544 182.472 48.712C182.318 48.866 182.122 48.95 181.856 48.95C181.744 48.95 181.632 48.936 181.506 48.922C181.38 48.908 181.268 48.866 181.142 48.824L180.876 49.902C181.044 49.972 181.226 50.028 181.394 50.056C181.59 50.098 181.786 50.112 182.01 50.112C182.556 50.112 182.99 49.986 183.312 49.72C183.634 49.454 183.886 49.048 184.068 48.488C184.166 48.222 184.236 47.928 184.292 47.564C184.348 47.228 184.39 46.85 184.418 46.444C184.46 46.052 184.474 45.646 184.488 45.226C184.502 44.806 184.502 44.4 184.502 44.008H187.484V50H188.856V42.86ZM192.289 42.86H190.917V50H193.857C194.361 50 194.809 49.93 195.215 49.804C195.607 49.664 195.943 49.468 196.223 49.244C196.489 48.992 196.699 48.712 196.839 48.39C196.993 48.068 197.063 47.704 197.063 47.312C197.063 46.878 196.993 46.514 196.839 46.192C196.685 45.87 196.489 45.604 196.223 45.408C195.971 45.184 195.677 45.03 195.327 44.932C194.991 44.82 194.627 44.764 194.249 44.764C193.899 44.764 193.563 44.806 193.227 44.876C192.905 44.96 192.583 45.072 192.289 45.226V42.86ZM192.289 48.852V46.346C192.807 46.052 193.381 45.898 194.039 45.898C194.585 45.898 195.005 46.024 195.271 46.262C195.551 46.5 195.691 46.85 195.691 47.298C195.691 47.774 195.537 48.152 195.215 48.432C194.907 48.712 194.431 48.852 193.773 48.852H192.289ZM200.013 42.86H198.627V50H200.013V46.962H203.863V50H205.249V42.86H203.863V45.786H200.013V42.86ZM215.779 42.86H214.393V50H215.779V42.86ZM208.667 42.86H207.295V50H210.179C210.683 50 211.131 49.93 211.523 49.804C211.915 49.664 212.237 49.468 212.517 49.23C212.769 48.992 212.979 48.698 213.105 48.376C213.245 48.054 213.315 47.69 213.315 47.312C213.315 46.892 213.245 46.528 213.105 46.206C212.965 45.884 212.769 45.618 212.531 45.408C212.293 45.198 211.999 45.03 211.677 44.932C211.341 44.82 210.977 44.764 210.585 44.764C210.235 44.764 209.899 44.806 209.577 44.876C209.269 44.96 208.961 45.072 208.667 45.212V42.86ZM208.667 48.838V46.332C209.185 46.038 209.745 45.898 210.333 45.898C210.879 45.898 211.285 46.024 211.551 46.262C211.817 46.5 211.943 46.85 211.943 47.298C211.943 47.76 211.789 48.138 211.509 48.418C211.201 48.698 210.739 48.838 210.095 48.838H208.667ZM219.293 42.86H217.571L220.133 46.234L217.333 50H219.041L221.043 46.976H221.183L223.311 50H225.033L222.205 46.29L224.739 42.86H223.101L221.281 45.59H221.141L219.293 42.86ZM234.325 42.692C233.751 42.692 233.233 42.79 232.757 42.972C232.281 43.154 231.875 43.42 231.539 43.756C231.189 44.092 230.923 44.484 230.727 44.946C230.545 45.408 230.447 45.898 230.447 46.43C230.447 46.976 230.545 47.48 230.727 47.942C230.909 48.404 231.175 48.796 231.511 49.132C231.861 49.454 232.267 49.72 232.743 49.888C233.219 50.084 233.751 50.168 234.325 50.168C234.885 50.168 235.403 50.07 235.879 49.888C236.355 49.706 236.761 49.44 237.111 49.104C237.447 48.768 237.713 48.376 237.909 47.914C238.105 47.452 238.203 46.962 238.203 46.43C238.203 45.884 238.105 45.38 237.923 44.918C237.741 44.456 237.475 44.064 237.125 43.728C236.775 43.406 236.369 43.14 235.893 42.972C235.417 42.776 234.899 42.692 234.325 42.692ZM234.325 43.854C234.703 43.854 235.053 43.924 235.361 44.05C235.669 44.176 235.935 44.358 236.159 44.596C236.369 44.82 236.537 45.086 236.663 45.408C236.789 45.716 236.845 46.052 236.845 46.43C236.845 46.808 236.789 47.158 236.663 47.48C236.551 47.802 236.383 48.068 236.159 48.292C235.949 48.516 235.683 48.684 235.375 48.824C235.067 48.936 234.717 49.006 234.325 49.006C233.947 49.006 233.597 48.936 233.289 48.824C232.981 48.684 232.715 48.516 232.491 48.292C232.281 48.068 232.113 47.802 231.987 47.48C231.861 47.158 231.805 46.808 231.805 46.43C231.805 46.052 231.861 45.716 231.987 45.394C232.099 45.072 232.267 44.806 232.491 44.568C232.701 44.344 232.967 44.176 233.275 44.036C233.597 43.924 233.947 43.854 234.325 43.854ZM246.511 42.86H239.903V50H241.289V44.022H245.125V50H246.511V42.86ZM255.725 42.86H250.069V44.092C250.069 44.946 250.041 45.702 249.999 46.388C249.943 47.074 249.831 47.634 249.677 48.082C249.607 48.334 249.495 48.544 249.341 48.712C249.187 48.866 248.991 48.95 248.725 48.95C248.613 48.95 248.501 48.936 248.375 48.922C248.249 48.908 248.137 48.866 248.011 48.824L247.745 49.902C247.913 49.972 248.095 50.028 248.263 50.056C248.459 50.098 248.655 50.112 248.879 50.112C249.425 50.112 249.859 49.986 250.181 49.72C250.503 49.454 250.755 49.048 250.937 48.488C251.035 48.222 251.105 47.928 251.161 47.564C251.217 47.228 251.259 46.85 251.287 46.444C251.329 46.052 251.343 45.646 251.357 45.226C251.371 44.806 251.371 44.4 251.371 44.008H254.353V50H255.725V42.86ZM257.87 43.518L258.416 44.498C259.186 44.092 259.984 43.882 260.838 43.882C261.468 43.882 261.944 44.008 262.238 44.274C262.532 44.54 262.686 44.918 262.686 45.436V45.828C262.392 45.73 262.056 45.646 261.72 45.576C261.356 45.506 260.992 45.478 260.6 45.478C259.606 45.478 258.836 45.688 258.262 46.094C257.688 46.5 257.408 47.074 257.408 47.788C257.408 48.558 257.66 49.16 258.136 49.552C258.64 49.972 259.298 50.168 260.152 50.168C261.398 50.168 262.322 49.748 262.924 48.922C262.994 49.384 263.148 49.692 263.4 49.86C263.624 50.042 263.932 50.126 264.282 50.126C264.562 50.126 264.8 50.084 264.996 49.986L264.87 48.95C264.772 48.992 264.674 49.006 264.576 49.006C264.408 49.006 264.268 48.936 264.17 48.824C264.072 48.684 264.016 48.474 264.016 48.18V45.562C264.016 44.666 263.764 43.966 263.246 43.448C262.728 42.944 261.916 42.692 260.81 42.692C260.278 42.692 259.774 42.748 259.298 42.888C258.822 43 258.346 43.224 257.87 43.518ZM262.7 46.892V47.2C262.7 47.466 262.644 47.718 262.518 47.928C262.392 48.152 262.224 48.348 262.028 48.502C261.804 48.656 261.566 48.782 261.3 48.88C261.02 48.964 260.726 49.006 260.404 49.006C259.886 49.006 259.48 48.908 259.2 48.712C258.934 48.502 258.794 48.208 258.794 47.816C258.794 47.452 258.934 47.158 259.228 46.92C259.508 46.696 259.984 46.584 260.656 46.584C261.426 46.584 262.098 46.682 262.7 46.892ZM272.451 42.86H265.815V44.036H268.447V50H269.819V44.036H272.451V42.86Z" fill="#9E9E9E"/>
<defs>
<linearGradient id="paint0_linear" x1="30" y1="0" x2="30" y2="60" gradientUnits="userSpaceOnUse">
<stop stop-color="#FFA200"/>
<stop offset="1" stop-color="#FC7F00"/>
</linearGradient>
<linearGradient id="paint1_linear" x1="30" y1="0" x2="30" y2="60" gradientUnits="userSpaceOnUse">
<stop stop-color="#FFA200"/>
<stop offset="1" stop-color="#FC7F00"/>
</linearGradient>
</defs>
</svg>
