<svg width="11" height="17" viewBox="0 0 11 17" fill="none" xmlns="http://www.w3.org/2000/svg">
<path d="M5.34374 9.49435C7.81169 9.49435 9.8124 7.57878 9.8124 5.21579C9.8124 2.85279 7.81172 0.937256 5.34374 0.937256C2.87575 0.937256 0.875102 2.85282 0.875102 5.21582C0.878131 7.57758 2.87704 9.49145 5.34374 9.49435ZM5.34374 2.91197C6.67263 2.91197 7.74994 3.94342 7.74994 5.21582C7.74994 6.48821 6.67267 7.51966 5.34374 7.51966C4.0148 7.51966 2.93753 6.48821 2.93753 5.21582C2.93753 3.94342 4.01484 2.91197 5.34374 2.91197Z" fill="#FF9800"/>
<path d="M9.72095 11.5217C10.2066 11.2155 10.4992 10.6962 10.4999 10.1394C10.5066 9.67736 10.2343 9.25304 9.8007 9.05005C9.35522 8.83699 8.82194 8.88497 8.42572 9.17381C6.5894 10.4556 4.09876 10.4556 2.26243 9.17381C1.8656 8.88649 1.33326 8.83857 0.887447 9.05005C0.454042 9.25301 0.181572 9.67686 0.187598 10.1388C0.188629 10.6954 0.481144 11.2146 0.96653 11.5211C1.58926 11.9176 2.26742 12.2278 2.98087 12.4426C3.10188 12.4786 3.22676 12.5119 3.35556 12.5427L1.27799 14.4878C0.732989 14.9941 0.719808 15.8275 1.2486 16.3493C1.7774 16.8712 2.64785 16.8838 3.19289 16.3775C3.20423 16.3669 3.21538 16.3562 3.22634 16.3453L5.3438 14.2468L7.46539 16.3492C7.99374 16.8715 8.86422 16.8847 9.40964 16.3789C9.95507 15.873 9.96892 15.0395 9.44058 14.5173C9.42953 14.5064 9.41828 14.4957 9.40684 14.4851L7.33269 12.542C7.46146 12.5104 7.58682 12.4768 7.70873 12.4413C8.42141 12.2273 9.09892 11.9177 9.72095 11.5217Z" fill="#FF9800"/>
</svg>
