<svg width="19" height="11" viewBox="0 0 19 11" fill="none" xmlns="http://www.w3.org/2000/svg">
<path d="M18.0927 10.0007C18.0711 9.95353 18.0509 9.9144 18.0321 9.88306C17.722 9.31826 17.1294 8.62501 16.2545 7.80311L16.2361 7.78429L16.2268 7.77506L16.2174 7.7656H16.2081C15.811 7.38288 15.5596 7.12555 15.4543 6.9938C15.2617 6.74283 15.2185 6.48879 15.3238 6.23139C15.3982 6.03692 15.6776 5.62622 16.1614 4.99872C16.4159 4.66617 16.6174 4.39965 16.7663 4.19884C17.8397 2.75578 18.3051 1.83364 18.1624 1.43207L18.1069 1.33823C18.0697 1.28173 17.9735 1.23005 17.8186 1.18291C17.6633 1.13588 17.4648 1.1281 17.2227 1.15944L14.5425 1.17817C14.499 1.16261 14.437 1.16406 14.3563 1.18291C14.2756 1.20177 14.2352 1.21123 14.2352 1.21123L14.1886 1.23479L14.1516 1.26311C14.1205 1.28183 14.0864 1.31476 14.0491 1.36183C14.0121 1.40873 13.9811 1.46378 13.9563 1.5265C13.6645 2.28565 13.3327 2.99146 12.9604 3.6439C12.7308 4.03295 12.5199 4.37011 12.3274 4.65559C12.1351 4.94098 11.9738 5.15124 11.8436 5.28602C11.7132 5.42093 11.5955 5.52901 11.4898 5.61066C11.3843 5.69234 11.3038 5.72685 11.248 5.71422C11.1921 5.7016 11.1394 5.68907 11.0896 5.67655C11.0028 5.62005 10.933 5.54322 10.8803 5.44598C10.8275 5.34874 10.7919 5.22636 10.7732 5.07892C10.7547 4.93138 10.7438 4.80448 10.7407 4.69778C10.7378 4.59122 10.7391 4.44049 10.7454 4.24601C10.7518 4.05144 10.7547 3.91979 10.7547 3.85077C10.7547 3.61232 10.7593 3.35354 10.7686 3.07435C10.7779 2.79517 10.7855 2.57396 10.7919 2.411C10.7982 2.24787 10.8012 2.07528 10.8012 1.89334C10.8012 1.71139 10.7902 1.5687 10.7686 1.46513C10.7472 1.3617 10.7143 1.26129 10.6711 1.16396C10.6276 1.06672 10.5639 0.991503 10.4803 0.938105C10.3966 0.884773 10.2924 0.84245 10.1685 0.811005C9.83966 0.735753 9.42089 0.695046 8.91201 0.688717C7.75804 0.676192 7.01655 0.751542 6.68771 0.914669C6.55741 0.983592 6.43951 1.07776 6.33409 1.19689C6.22238 1.33496 6.2068 1.41031 6.28744 1.42271C6.65977 1.47911 6.92335 1.61402 7.07848 1.82731L7.13439 1.94034C7.17787 2.02189 7.22129 2.16626 7.26474 2.37326C7.30813 2.58026 7.33613 2.80924 7.34845 3.06008C7.37942 3.51815 7.37942 3.91026 7.34845 4.23645C7.31739 4.56277 7.28805 4.81681 7.26005 4.99876C7.23205 5.18071 7.19019 5.32814 7.13439 5.44104C7.07848 5.55397 7.04129 5.62299 7.02264 5.64804C7.00403 5.67309 6.98851 5.68888 6.97619 5.69507C6.89555 5.72632 6.81167 5.74224 6.72487 5.74224C6.63793 5.74224 6.53251 5.69827 6.40844 5.6104C6.28441 5.52252 6.15569 5.40181 6.02227 5.24808C5.88884 5.09431 5.73838 4.87944 5.57079 4.60342C5.40334 4.32739 5.2296 4.00117 5.04966 3.62475L4.90079 3.35176C4.80772 3.17614 4.6806 2.92042 4.51927 2.58484C4.35785 2.24912 4.21517 1.92439 4.09114 1.61069C4.04156 1.47894 3.96707 1.37864 3.86782 1.30962L3.82123 1.2813C3.79027 1.25625 3.74056 1.22965 3.67236 1.2013C3.60407 1.17299 3.53281 1.15269 3.4583 1.14019L0.908247 1.15892C0.647665 1.15892 0.470857 1.21861 0.37776 1.33783L0.340501 1.39423C0.321888 1.42564 0.3125 1.47581 0.3125 1.54486C0.3125 1.61389 0.331113 1.6986 0.368372 1.7989C0.740632 2.68359 1.14546 3.53681 1.58285 4.35867C2.02024 5.18054 2.40032 5.84258 2.72287 6.34419C3.04549 6.84616 3.37433 7.31992 3.70939 7.76523C4.04446 8.21071 4.26625 8.49619 4.37477 8.62161C4.48342 8.74726 4.56875 8.8412 4.63079 8.90393L4.8635 9.12975C5.0124 9.28035 5.23107 9.46072 5.51958 9.67085C5.80817 9.88111 6.12765 10.0881 6.4782 10.2922C6.82882 10.4959 7.23671 10.6622 7.7021 10.7908C8.16743 10.9195 8.62033 10.9711 9.06088 10.9462H10.1312C10.3482 10.9273 10.5127 10.8582 10.6245 10.7391L10.6615 10.6919C10.6864 10.6545 10.7097 10.5963 10.7312 10.518C10.753 10.4396 10.7638 10.3532 10.7638 10.2592C10.7575 9.98952 10.7778 9.74643 10.8242 9.53C10.8706 9.31364 10.9235 9.15052 10.9826 9.04065C11.0417 8.93089 11.1084 8.83827 11.1826 8.76318C11.257 8.68793 11.31 8.64235 11.3411 8.62666C11.372 8.61087 11.3967 8.60015 11.4153 8.59373C11.5642 8.54356 11.7394 8.59214 11.9413 8.73971C12.143 8.88715 12.3321 9.0692 12.5091 9.28556C12.6859 9.50212 12.8984 9.74508 13.1465 10.0148C13.3948 10.2846 13.6119 10.4852 13.7979 10.6171L13.984 10.7301C14.1083 10.8054 14.2696 10.8744 14.4682 10.9372C14.6664 10.9999 14.8401 11.0156 14.9892 10.9842L17.3716 10.9466C17.6073 10.9466 17.7907 10.9072 17.9207 10.8289C18.051 10.7505 18.1285 10.6641 18.1534 10.5701C18.1783 10.476 18.1797 10.3693 18.1582 10.25C18.1361 10.131 18.1143 10.0477 18.0927 10.0007Z" fill="#527DD1"/>
</svg>
