<svg width="16" height="17" viewBox="0 0 16 17" fill="none" xmlns="http://www.w3.org/2000/svg">
<path d="M15.9598 5.58619C15.9228 4.74601 15.7869 4.16839 15.5922 3.66788C15.3914 3.13659 15.0824 2.66094 14.6776 2.26552C14.2821 1.86395 13.8033 1.55192 13.278 1.35427C12.7745 1.15964 12.1998 1.02377 11.3595 0.986728C10.5129 0.946547 10.2441 0.937256 8.09683 0.937256C5.94957 0.937256 5.6808 0.946547 4.83732 0.983591C3.99698 1.02063 3.41925 1.15662 2.91876 1.35113C2.38726 1.55192 1.91151 1.86082 1.51602 2.26552C1.11437 2.66094 0.802399 3.13973 0.604593 3.66486C0.409926 4.16839 0.274032 4.74287 0.236982 5.58305C0.196793 6.42951 0.1875 6.69823 0.1875 8.84507C0.1875 10.9919 0.196793 11.2606 0.233844 12.104C0.270895 12.9441 0.406909 13.5218 0.601576 14.0223C0.802399 14.5536 1.11437 15.0292 1.51602 15.4246C1.91151 15.8262 2.3904 16.1382 2.91562 16.3359C3.41925 16.5305 3.99384 16.6664 4.8343 16.7034C5.67766 16.7406 5.94655 16.7498 8.09381 16.7498C10.2411 16.7498 10.5098 16.7406 11.3533 16.7034C12.1937 16.6664 12.7714 16.5305 13.2719 16.3359C14.3348 15.925 15.1751 15.0848 15.586 14.0223C15.7806 13.5187 15.9166 12.9441 15.9537 12.104C15.9907 11.2606 16 10.9919 16 8.84507C16 6.69823 15.9969 6.42951 15.9598 5.58619ZM14.5356 12.0422C14.5016 12.8144 14.3718 13.2314 14.2637 13.5095C13.9979 14.1983 13.4511 14.745 12.7621 15.0107C12.484 15.1189 12.0639 15.2486 11.2945 15.2825C10.4604 15.3196 10.2102 15.3288 8.09997 15.3288C5.98976 15.3288 5.73644 15.3196 4.90527 15.2825C4.13287 15.2486 3.71578 15.1189 3.43772 15.0107C3.09484 14.8841 2.78275 14.6833 2.52943 14.4207C2.26681 14.1643 2.06599 13.8554 1.93927 13.5126C1.83113 13.2346 1.70139 12.8144 1.66748 12.0453C1.63031 11.2113 1.62114 10.961 1.62114 8.85123C1.62114 6.74142 1.63031 6.48815 1.66748 5.65726C1.70139 4.88501 1.83113 4.468 1.93927 4.18999C2.06599 3.84706 2.26681 3.53515 2.53256 3.28175C2.7889 3.01919 3.09786 2.8184 3.44085 2.69183C3.71892 2.58371 4.13915 2.454 4.9084 2.41997C5.74259 2.38293 5.9929 2.37364 8.10298 2.37364C10.2163 2.37364 10.4665 2.38293 11.2977 2.41997C12.0701 2.454 12.4872 2.58371 12.7652 2.69183C13.1081 2.8184 13.4202 3.01919 13.6735 3.28175C13.9361 3.53816 14.137 3.84706 14.2637 4.18999C14.3718 4.468 14.5016 4.88803 14.5356 5.65726C14.5726 6.49129 14.5819 6.74142 14.5819 8.85123C14.5819 10.961 14.5726 11.2082 14.5356 12.0422Z" fill="url(#paint0_linear)"/>
<path d="M8.09687 4.78306C5.8539 4.78306 4.03406 6.60242 4.03406 8.84508C4.03406 11.0877 5.8539 12.9071 8.09687 12.9071C10.34 12.9071 12.1597 11.0877 12.1597 8.84508C12.1597 6.60242 10.34 4.78306 8.09687 4.78306ZM8.09687 11.48C6.64174 11.48 5.46143 10.3 5.46143 8.84508C5.46143 7.39012 6.64174 6.21015 8.09687 6.21015C9.55211 6.21015 10.7323 7.39012 10.7323 8.84508C10.7323 10.3 9.55211 11.48 8.09687 11.48Z" fill="url(#paint1_linear)"/>
<path d="M13.2689 4.62245C13.2689 5.14613 12.8442 5.57075 12.3203 5.57075C11.7965 5.57075 11.3718 5.14613 11.3718 4.62245C11.3718 4.09865 11.7965 3.67415 12.3203 3.67415C12.8442 3.67415 13.2689 4.09865 13.2689 4.62245Z" fill="url(#paint2_linear)"/>
<defs>
<linearGradient id="paint0_linear" x1="14.2813" y1="1.62476" x2="3.28125" y2="15.031" gradientUnits="userSpaceOnUse">
<stop stop-color="#405DE6"/>
<stop offset="0.213542" stop-color="#5851DB"/>
<stop offset="0.375" stop-color="#833AB4"/>
<stop offset="0.505208" stop-color="#C13584"/>
<stop offset="0.6875" stop-color="#E1306C"/>
<stop offset="0.786458" stop-color="#FD1D1D"/>
<stop offset="0.880208" stop-color="#F56040"/>
<stop offset="0.947917" stop-color="#F77737"/>
<stop offset="1" stop-color="#FCAF45"/>
</linearGradient>
<linearGradient id="paint1_linear" x1="14.2813" y1="1.62476" x2="3.28125" y2="15.031" gradientUnits="userSpaceOnUse">
<stop stop-color="#405DE6"/>
<stop offset="0.213542" stop-color="#5851DB"/>
<stop offset="0.375" stop-color="#833AB4"/>
<stop offset="0.505208" stop-color="#C13584"/>
<stop offset="0.6875" stop-color="#E1306C"/>
<stop offset="0.786458" stop-color="#FD1D1D"/>
<stop offset="0.880208" stop-color="#F56040"/>
<stop offset="0.947917" stop-color="#F77737"/>
<stop offset="1" stop-color="#FCAF45"/>
</linearGradient>
<linearGradient id="paint2_linear" x1="14.2813" y1="1.62476" x2="3.28125" y2="15.031" gradientUnits="userSpaceOnUse">
<stop stop-color="#405DE6"/>
<stop offset="0.213542" stop-color="#5851DB"/>
<stop offset="0.375" stop-color="#833AB4"/>
<stop offset="0.505208" stop-color="#C13584"/>
<stop offset="0.6875" stop-color="#E1306C"/>
<stop offset="0.786458" stop-color="#FD1D1D"/>
<stop offset="0.880208" stop-color="#F56040"/>
<stop offset="0.947917" stop-color="#F77737"/>
<stop offset="1" stop-color="#FCAF45"/>
</linearGradient>
</defs>
</svg>
