<svg width="9" height="17" viewBox="0 0 9 17" fill="none" xmlns="http://www.w3.org/2000/svg">
<path d="M8.31433 0.253311L6.33553 0.249878C4.11242 0.249878 2.67574 1.8437 2.67574 4.31055V6.18279H0.686147C0.514223 6.18279 0.375 6.3335 0.375 6.51941V9.23207C0.375 9.41797 0.514381 9.56852 0.686147 9.56852H2.67574V16.4134C2.67574 16.5993 2.81496 16.7499 2.98689 16.7499H5.58274C5.75467 16.7499 5.89389 16.5992 5.89389 16.4134V9.56852H8.22019C8.39212 9.56852 8.53134 9.41797 8.53134 9.23207L8.53229 6.51941C8.53229 6.43015 8.49943 6.34466 8.44117 6.28149C8.38291 6.21832 8.30353 6.18279 8.22099 6.18279H5.89389V4.59567C5.89389 3.83283 6.06201 3.44558 6.981 3.44558L8.31401 3.44507C8.48578 3.44507 8.625 3.29435 8.625 3.10862V0.589755C8.625 0.404196 8.48594 0.253654 8.31433 0.253311Z" fill="#255BC5"/>
</svg>
